HIERARCHY
ROOT Hips
{
	OFFSET 0.000000 0.000000 0.000000
	CHANNELS 6 Xposition Yposition Zposition Xrotation Yrotation Zrotation
	JOINT LeftUpLeg_virtual
	{
		OFFSET 0.000000 0.000000 0.000000
		CHANNELS 3 Xrotation Yrotation Zrotation
		JOINT LeftUpLeg
		{
			OFFSET 10.205400 -3.823500 0.155100
			CHANNELS 3 Xrotation Yrotation Zrotation
			JOINT LeftLeg
			{
				OFFSET 0.708757 -12.982077 0.567790
				CHANNELS 3 Xrotation Yrotation Zrotation
				JOINT LeftFoot
				{
					OFFSET -0.708756 -10.717838 -2.184338
					CHANNELS 3 Xrotation Yrotation Zrotation
					JOINT LeftToeBase
					{
						OFFSET 0.108149 -7.191104 7.560241
						CHANNELS 3 Xrotation Yrotation Zrotation
						JOINT LeftToe_End
						{
							OFFSET 0.070230 0.081724 4.490308
							CHANNELS 3 Xrotation Yrotation Zrotation
							End Site
							{
								OFFSET 0 0 0
							}
						}
					}
				}
			}
		}
	}
	JOINT RightUpLeg_virtual
	{
		OFFSET 0.000000 0.000000 0.000000
		CHANNELS 3 Xrotation Yrotation Zrotation
		JOINT RightUpLeg
		{
			OFFSET -10.205400 -3.823500 0.005500
			CHANNELS 3 Xrotation Yrotation Zrotation
			JOINT RightLeg
			{
				OFFSET -0.708756 -12.982134 0.610632
				CHANNELS 3 Xrotation Yrotation Zrotation
				JOINT RightFoot
				{
					OFFSET 0.708754 -10.717769 -1.945823
					CHANNELS 3 Xrotation Yrotation Zrotation
					JOINT RightToeBase
					{
						OFFSET -0.108140 -7.191069 7.372968
						CHANNELS 3 Xrotation Yrotation Zrotation
						JOINT RightToe_End
						{
							OFFSET -0.070227 0.081735 4.479403
							CHANNELS 3 Xrotation Yrotation Zrotation
							End Site
							{
								OFFSET 0 0 0
							}
						}
					}
				}
			}
		}
	}
	JOINT Spine_virtual
	{
		OFFSET 0.000000 0.000000 0.000000
		CHANNELS 3 Xrotation Yrotation Zrotation
		JOINT Spine
		{
			OFFSET 0.000000 6.876099 0.125700
			CHANNELS 3 Xrotation Yrotation Zrotation
			JOINT Spine1
			{
				OFFSET 0.000000 5.730043 0.104720
				CHANNELS 3 Xrotation Yrotation Zrotation
				JOINT Spine1_split
				{
					OFFSET 0.000000 5.730043 0.104720
					CHANNELS 3 Xrotation Yrotation Zrotation
					JOINT Spine2
					{
						OFFSET 0.000000 5.730043 0.104720
						CHANNELS 3 Xrotation Yrotation Zrotation
						JOINT Neck_virtual
						{
							OFFSET 0.000000 0.000000 0.000000
							CHANNELS 3 Xrotation Yrotation Zrotation
							JOINT Neck
							{
								OFFSET 0.000000 10.314075 0.188496
								CHANNELS 3 Xrotation Yrotation Zrotation
								JOINT Head
								{
									OFFSET 0.000000 7.643700 -2.377400
									CHANNELS 3 Xrotation Yrotation Zrotation
									JOINT HeadTop_End
									{
										OFFSET 0.000000 43.788605 -13.619600
										CHANNELS 3 Xrotation Yrotation Zrotation
										End Site
										{
											OFFSET 0 0 0
										}
									}
								}
							}
						}
						JOINT LeftShoulder_virtual
						{
							OFFSET 0.000000 0.000000 0.000000
							CHANNELS 3 Xrotation Yrotation Zrotation
							JOINT LeftShoulder
							{
								OFFSET 2.196100 4.412489 0.087492
								CHANNELS 3 Xrotation Yrotation Zrotation
								JOINT LeftShoulder_split
								{
									OFFSET 2.196100 4.412489 0.087492
									CHANNELS 3 Xrotation Yrotation Zrotation
									JOINT LeftArm
									{
										OFFSET 8.771219 -2.981674 -0.026999
										CHANNELS 3 Xrotation Yrotation Zrotation
										JOINT LeftForeArm
										{
											OFFSET 8.512804 0.000000 -0.000000
											CHANNELS 3 Xrotation Yrotation Zrotation
											JOINT LeftHand
											{
												OFFSET 18.484802 0.000000 -0.000000
												CHANNELS 3 Xrotation Yrotation Zrotation
												End Site
												{
													OFFSET 0 0 0
												}
											}
										}
									}
								}
							}
						}
						JOINT RightShoulder_virtual
						{
							OFFSET 0.000000 0.000000 0.000000
							CHANNELS 3 Xrotation Yrotation Zrotation
							JOINT RightShoulder
							{
								OFFSET -2.196100 4.412496 0.070690
								CHANNELS 3 Xrotation Yrotation Zrotation
								JOINT RightShoulder_split
								{
									OFFSET -2.196100 4.412496 0.070690
									CHANNELS 3 Xrotation Yrotation Zrotation
									JOINT RightArm
									{
										OFFSET -8.771282 -2.981682 -0.094208
										CHANNELS 3 Xrotation Yrotation Zrotation
										JOINT RightForeArm
										{
											OFFSET -8.494598 0.000000 0.000000
											CHANNELS 3 Xrotation Yrotation Zrotation
											JOINT RightHand
											{
												OFFSET -18.483803 0.000000 0.000001
												CHANNELS 3 Xrotation Yrotation Zrotation
												End Site
												{
													OFFSET 0 0 0
												}
											}
										}
									}
								}
							}
						}
					}
				}
			}
		}
	}
}
MOTION
Frames: 4
Frame Time: 0.03333333
0.155639 27.408827 0.496929 0.000000 0.000000 0.000000 10.389181 5.387403 -1.219289 -47.534234 4.472302 1.812821 75.636115 8.635968 0.677169 -39.636093 9.211686 -6.280401 -5.415169 -0.495737 0.053987 0.000000 0.000000 0.000000 10.916301 4.834024 -1.080679 -36.416923 -12.920797 -2.972516 74.664800 -6.135001 -5.011653 -46.758229 -13.516571 5.741193 2.100864 1.334675 -0.548467 0.000000 0.000000 0.000000 10.438081 2.797804 -0.699782 9.400996 1.249552 1.706632 8.772967 1.918213 -0.485456 0.828009 -0.581175 0.368879 0.000000 0.000000 0.000000 8.860056 0.831849 0.128951 -10.266698 -1.316495 6.179191 -25.803234 1.865857 -7.247384 0.000000 0.000000 0.000000 9.088438 0.494793 -0.006663 3.305947 -24.535588 3.973098 -2.632633 0.748063 -3.265815 -62.262693 -25.057743 -65.153352 177.456525 -72.647743 175.606185 0.000000 0.000000 0.000000 8.242371 0.631415 0.258246 0.019073 12.058680 10.743750 1.010054 6.463605 0.108049 -63.269729 31.502427 50.790465 -179.134115 70.618378 178.263785 0.000000 0.000000 0.000000 
0.153934 27.407389 0.495909 0.000000 0.000000 0.000000 10.366474 5.368991 -1.208447 -47.521130 4.484057 1.822312 75.652541 8.632124 0.681547 -39.640734 9.215288 -6.278949 -5.422086 -0.497752 0.049909 0.000000 0.000000 0.000000 10.892255 4.812045 -1.070300 -36.416977 -12.916807 -2.973278 74.677627 -6.126323 -5.016819 -46.771397 -13.516856 5.721174 2.103256 1.333363 -0.546732 0.000000 0.000000 0.000000 10.423179 2.779483 -0.694490 9.402654 1.234046 1.717302 8.792104 1.901714 -0.479452 0.825313 -0.580986 0.368245 0.000000 0.000000 0.000000 8.879433 0.813074 0.134696 -10.269398 -1.296755 6.162343 -25.819061 1.934106 -7.267403 0.000000 0.000000 0.000000 9.111309 0.477843 -0.001192 3.305421 -24.545320 3.970727 -2.635042 0.766386 -3.244717 -62.284597 -25.002838 -65.170919 177.451484 -72.692474 175.616950 0.000000 0.000000 0.000000 8.265820 0.614160 0.262856 0.013108 12.103230 10.714691 0.995681 6.449182 0.098888 -63.296613 31.466791 50.772365 -179.154660 70.679576 178.291925 0.000000 0.000000 0.000000 
0.152579 27.405064 0.494732 0.000000 0.000000 0.000000 10.340100 5.355023 -1.201018 -47.508013 4.490312 1.830649 75.673974 8.627350 0.688718 -39.646045 9.223674 -6.277556 -5.433408 -0.499224 0.043725 0.000000 0.000000 0.000000 10.866487 4.790015 -1.062130 -36.417571 -12.915592 -2.971828 74.697421 -6.119361 -5.020759 -46.782363 -13.514845 5.700652 2.104150 1.332144 -0.544948 0.000000 0.000000 0.000000 10.403991 2.757692 -0.689364 9.406040 1.221874 1.727073 8.807843 1.889484 -0.473800 0.816481 -0.573139 0.365643 0.000000 0.000000 0.000000 8.891416 0.798237 0.140140 -10.266848 -1.277508 6.147636 -25.821989 1.992553 -7.281789 0.000000 0.000000 0.000000 9.131404 0.463637 0.004566 3.304549 -24.550384 3.964053 -2.651100 0.773039 -3.233233 -62.322853 -24.941131 -65.171814 177.448533 -72.744069 175.627700 0.000000 0.000000 0.000000 8.284446 0.600108 0.268113 0.007487 12.144293 10.687223 0.984858 6.440084 0.096123 -63.348365 31.409366 50.779373 -179.156490 70.741130 178.296802 0.000000 0.000000 0.000000 
0.151450 27.401949 0.493883 0.000000 0.000000 0.000000 10.311685 5.344057 -1.194674 -47.491022 4.493184 1.831176 75.694137 8.624517 0.696681 -39.654572 9.238641 -6.276916 -5.444572 -0.500098 0.036737 0.000000 0.000000 0.000000 10.839028 4.767411 -1.053700 -36.417524 -12.915474 -2.970696 74.724858 -6.112357 -5.025619 -46.789425 -13.510942 5.687241 2.101589 1.331516 -0.544088 0.000000 0.000000 0.000000 10.379796 2.731744 -0.680838 9.409171 1.212939 1.734446 8.818584 1.881410 -0.468622 0.804332 -0.563628 0.364682 0.000000 0.000000 0.000000 8.898215 0.788597 0.144960 -10.253926 -1.262126 6.133181 -25.819385 2.025409 -7.287765 0.000000 0.000000 0.000000 9.147081 0.453506 0.010682 3.303005 -24.546894 3.959806 -2.668680 0.762364 -3.236523 -62.363295 -24.891375 -65.148509 177.452754 -72.738509 175.639858 0.000000 0.000000 0.000000 8.297081 0.590555 0.273678 0.002619 12.174429 10.657253 0.983451 6.443318 0.105229 -63.407767 31.342430 50.820603 -179.149455 70.748773 178.289835 0.000000 0.000000 0.000000 
